<svg xmlns="http://www.w3.org/2000/svg" id="Camada_1" data-name="Camada 1" viewBox="0 0 522.44 95.15"><defs><style>.cls-1{fill:#f37020;}</style></defs><title>teste</title><path class="cls-1" d="M.19,27.69v.17l.72,1.28-.07,1.8,0,.33.35.47c.38,0,.8-.42,1.25-1.21l.33,0,.17.16-.29.67L3,32v.16l-1-.11C.88,32.42.3,32.78.31,33.1v.17l.74,1.6a54.74,54.74,0,0,0,10.29-1.19l.2.64,3.1-.32,13-.35a19.34,19.34,0,0,0,8-1.74h.17l-.28,1v.16l1-.22,8.7-.29h.33A7.61,7.61,0,0,0,50,30.83l-.89-1.27,1.13-.38a2.35,2.35,0,0,0,1.84.72l-.12.83L52,31.87l.34.31.49,0A5.51,5.51,0,0,0,55,31.72L56,32v-.17l.15-.17,0-.66c-.06-1.19-.31-1.78-.75-1.76a3.88,3.88,0,0,0,.53-2.49l-.42-1.62-.81.2L49,27.11l-.33,0,.27-1q0-.78-17.09-.26l-3.45.18A100.63,100.63,0,0,0,10.9,28.28l.61-.85,0-.33Zm12.73,1.47,2.55-1.44A2.12,2.12,0,0,0,16,29.17l0,.82-.65,0-1.62.58-.88-1.11Zm13.3,0,.31-.34.49,0a5.61,5.61,0,0,1,2.5.69l-.29.68.34.31.81-.21,0,.65-.81.21-.82,0,0,.33-.5,0ZM9.87,30.64l1.47-.24,0,.65a1.55,1.55,0,0,1-1.43.9l.12-.83Zm32.78,4.69a1.5,1.5,0,0,0-1.44.89v.17l1.8-.1c.85,0,1.35.15,1.51.58l-.46.68v.17c.05,1,.9,1.54,2.55,1.67L47.76,39a7.07,7.07,0,0,0-1-3.07l-.81.2ZM13,37.05c-2.11.11-3.24,1.53-3.39,4.28v.33l.63-.53.33,0,0,.33a1,1,0,0,0-.95.71c0,.22.34.31,1,.27v.17c0,.13-.47.38-1.44.73v.16a4.81,4.81,0,0,1,2.16.55c1.71,1.88,2.69,2.81,2.94,2.8l.33,0a3.77,3.77,0,0,1,1.9-1.25l0,.33c-.07,1.32-.52,2-1.37,2l-.66-.13a2.79,2.79,0,0,1-2.46-3l-1.47.08a1.16,1.16,0,0,0-1.26,1,1.22,1.22,0,0,0,0,.33A4.36,4.36,0,0,1,10.67,49a2.33,2.33,0,0,0-1,2.19l.12,2.13c0,.32.73.45,2.15.38l1.31-.07A12.8,12.8,0,0,0,16.63,53a3.21,3.21,0,0,1-2.88,1.46h-.17a9.08,9.08,0,0,1-3.64-.63L9.78,54,10,55.44l.43,11.31c.43,3.59.86,5.38,1.27,5.36l1.29-.4a2.67,2.67,0,0,0,.57,1.45c1.54.16,2.33.45,2.35.86l0,.49-.46.52-2.33-.37c-.43.07-.64.25-.62.52v.16Q14.3,79,14.87,79l.33,0a3.58,3.58,0,0,1,2.24-1.1l.5,0,6.1.51,1-.22.71,1,0,.33-.16.17-.51-.3c-2.75-.27-4.13-.58-4.15-.93l-1.62.41-1,0-1.81-.23-.94.87q4.87,5.33,13.56,4.88,4.46-.41,5.2-.93A18.18,18.18,0,0,0,42,81.69q8.48-4.38,7.76-21.1L49.43,55c-.06-1.2-.53-1.78-1.41-1.73A4,4,0,0,0,49,50,18,18,0,0,0,48.3,46l-1,.06v.16l.52.63v.16l-1.8.1-.34-.31c.14-.37,1-1,2.53-1.78V44.9l-.18-.16.7-2.34-.35-.47h-.16l-.16.17q0,.49-.3.51h-.33a2.25,2.25,0,0,1-1-1.09l0-.33,1.5.42c.17,0,.36-.46.59-1.35,0-.44-.86-.61-2.49-.53l-3.44.35c-.32,0-.48.13-.47.35v.17c0,.16.46.46,1.36.91l-.46.52L40.46,40.7l.49-.19-.87-.94.31-.34c0,.54.15.81.37.8l.49,0q.66,0,1.56-1.56l-.34-.31L41,38.21c-1.41.27-2.11.58-2.09.93L39,41.27c0,.22.23.32.67.29Q42,43.09,43.05,43h.16c.22,0,.37-.34.44-1h.17q0,.52,1,1.26L41,44.62l-1.66-.24-.15.17L39.25,49c.1,1.75.54,2.93,1.34,3.55h-.16a1,1,0,0,0-1.1.93,1.31,1.31,0,0,0,0,.28l.38,1c1,.85,1.56,1.54,1.59,2v.17l-.15.17L40,56.66h-.17l-.15.17.45,2.28,0,8.71.1,2,.22,1v.17l-.84-.29c-.22,0-.4.79-.53,2.33a1.87,1.87,0,0,0,.55,1.13c-2.82.53-4.22,1.09-4.19,1.69V76a20.78,20.78,0,0,1,4.64.73v.16c-.85,0-1.39.24-1.62.58L37.6,77a6.17,6.17,0,0,0-2.26.94v-.16c0-.2.36-.43,1.11-.72v-.16a4.74,4.74,0,0,1-1.84-.73l-.49,0,0,.33c.44,0,.67.18.68.45l0,.49-.49.19-.5-.13v-.17l.15-.17,0-.66-.18-.15-1.63.25Q24.3,77,21.81,73.38l-1.53-4a3,3,0,0,0-1.43.89h-.17l0-.33c.12-.44.6-.68,1.44-.73l-.28-5.4a5.33,5.33,0,0,0-.44-2.12c.22,0,.31-.4.27-1.16l0-.66a4,4,0,0,0-1.45-2.55c1.09-.06,1.58-1.12,1.47-3.2l-.73-4.56.12-1-.18-.16a5.8,5.8,0,0,0-2.09.77l-.35-.31c0-.68.53-1.37,1.7-2.06l1,.11a8.88,8.88,0,0,0,.34-2.81L19.38,43Q18,36.79,13.16,37Zm27.9-.48a1.8,1.8,0,0,0-1.59,1.07l0,.49.33,0a1.59,1.59,0,0,0,1.59-.9V37ZM41,48.06c0-.76.59-1.34,1.88-1.74.85,0,1.35.15,1.51.58-.76,0-1.14.28-1.11.71v.17l-1-.28a1.87,1.87,0,0,1-1.12.55Zm4.5,1.25a1.77,1.77,0,0,1,1.6-.91l.82.12,0,.33L47.8,49l-.35-.31a2.14,2.14,0,0,1-1.27.73l-.5,0Zm-35,9.39.33,0A2.26,2.26,0,0,1,13.22,60l-.11,1-.82,0A3.41,3.41,0,0,1,10.52,58.7Zm35.72,1.41h.17l.15-.17,1.64-.09.17.16a.89.89,0,0,1-.62.69c-1,.05-1.48-.14-1.5-.58ZM18.77,62.37l.33,0v.17l-.32,0ZM3.86,88.29l-.16.17L3.88,95v.17l.35.31L38,93.73c1.19-1.38,2-2.08,2.35-2.1.56.11.84.26.85.45l-2.07,1.26v.33l20-1L58.87,91l.06-5.09c0-.33-.13-.49-.35-.48l-14.42.76.4,1.29-.61.85v.33l.66,0,1.5.41,0,.49.4,1.46v.16a17.72,17.72,0,0,1-5.94-.51l0-.33c1.6-.82,2.38-1.57,2.35-2.25v-.17L40.81,88l0-.33c1.19-.17,1.77-.59,1.74-1.24h-.17l-.17-.16L12.71,87.83l-.16.17c0,.54-.07.82-.28.83l-.16.18c0-.77-.83-1.11-2.36-1l-5.07.43ZM12,93.61l.48-.19,1.67.41c0,.22-.31.45-.79.69L12,93.94Zm32.2-68.22-.31.34.34,6.56.35.31L93.75,30c.3,0,.48-.79.53-2.33l-.4-4.58-.35-.31ZM70.8,27.77l1.28-.56c0,.47.48.83,1.37,1.08v.16q-2,.11-1.92.93l-.49,0,.1-1.15ZM57.21,35.06l-1.46.4q-3.33,2.07-2.93,9.85L52.91,47l1.18,13.24.33,12.47q.82,7.84,1.39,7.81,1.15,2.25,6.19,2l1.14-.06,9.49-.82,6.73-.19,5.55-.62c2.4-.13,3.55-1.17,3.45-3.14l0-1c-.62-2.27-1.49-3.37-2.64-3.31a1.92,1.92,0,0,1-1.12.55l-.33,0-1-.94-4.25.55L64.35,74,63.21,52.32,63,52.17c-.55,0-.82-.07-.84-.29L62,51.73l-.1-2-.38-1,.49,0,.17.15q0,.49.36.48l.32,0,.16-.17-.23-7.55a15.52,15.52,0,0,0-1.09-5C61.15,35.46,60,34.92,58.2,35Zm39.5,48.36L47.23,86l-.15.17c.18,1.41.44,2.22.78,2.42a2.32,2.32,0,0,0-.57,1.67l.14,2.63.35.31,49.31-2.59.31-.34-.34-6.56Zm5.83-61.25L80.75,23.31l-.16.17L81,27.41v3.12l.17.15.16-.17L89,30.27l2.61-.3,0-.33c-.66-.19-1-.39-1-.61l0-.49c1.66.27,2.72.76,3.2,1.48l1.14-.23,20-1.05,20-.88V27.7l.16-.17-.36-6.89-1.29.4-4.62-.25-.82,0a3.38,3.38,0,0,0-1.61.58l.56,1.28,0,.33q-.95,0-2.07-1.86l-11.64.44a6.42,6.42,0,0,0-3.24,1,2.41,2.41,0,0,0-2-.72l-1.15.06c-2.39.48-3.56,1-3.54,1.5h-.16C102.94,22.58,102.76,22.16,102.54,22.17ZM90.65,24.1l1.49.25v.17l-.61,1-.33,0q-.36,0-.54-1Zm-7.44,2.37,1.46-.4.06,1.14-1.15.06L83.24,27Zm36.29-.42,1.73-1.41.37.8a2.26,2.26,0,0,1-1.76.92Zm4.14.6,2.09-.77.06,1.15-.65,0-1.82-.24c-.32,0-.47.36-.44,1l-.32,0-.18-.16.27-1.16.83.12Zm-23.36,2.53c.53-.79,1-1.2,1.41-1.22l.67.29c0,.55-.44.84-1.43.9Zm16.39,2.43L111.6,32l-2.13.11-2,.27v-.17l-.49,0c0,.95-.46,1.53-1.55,1.72l-.37-.8L101.9,35h-.16l.13-.5c0-.27-.47-.69-1.37-1.24l.3-.51v-.16l-.16.17-6.4.17a16.09,16.09,0,0,0-4.39.89c-.84.62-1.22,1.73-1.14,3.34l0,.66c.05.54.18.81.37.8.07,1.34,2,2,5.85,2l2.13-.11c3.77-.2,6-.05,6.76.46l.72,16.72a44.69,44.69,0,0,0,1.18,7,10.16,10.16,0,0,0-.63,3.49,4.28,4.28,0,0,0,1.64,3.2l-.65,0c-.66,0-1,.49-.92,1.37l0,1c.17,3.14,1.91,5.07,5.24,5.8l.65,0a4.61,4.61,0,0,0,3-2l-.34-.31-.82,0-2.09.93h-.16l.61-.85c0-.25-.3-.4-.85-.45v-.17l.49,0,3.62.14c.54,0,.77-.87.69-2.5a3.83,3.83,0,0,0-.75-1.77c.33,0,.48-.13.47-.35l-.1-2-.17-.15-1.46.4a1.06,1.06,0,0,1-1-.6v-.16h.17l.17.15h.16l2.1-.76L113.33,40l.17.15,3.42-.67c1,0,1.57-.85,1.68-2.39a10.89,10.89,0,0,0,4,1.1v.17c-.85,0-1.33.29-1.45.73v.16l.35.32,1.14-.06c2.19-.17,3.26-.5,3.24-1v-.18l-1,0-1.14.23v-.17l-.33,0,0-.33.81-.2,2.5.52a4.93,4.93,0,0,0,1.78-3.54l0-.49q-.18-3.43-11.81-2.83Zm-6.06,3.6c0-1.09,1-2,3.31-2.8-.85,2.67-1.82,4-2.91,4.09l-.49,0v-.16l.48-.19Zm-4.9.42c0-.19.25-.37.79-.53l1.82.39c0,.55-.44.85-1.43.9l-.32,0,.12-.83Zm16.3.79a2.82,2.82,0,0,1,1.91-1.25l.5.14c-.75.91-1.32,1.38-1.73,1.4Zm-23.33,3c.43-1.23,1.11-1.87,2-1.91.51.19.79.39.86.61v.33l-1,0a3.16,3.16,0,0,1-1.75.91Zm8.76.85c.76,0,1.16.27,1.19.92l-.28.84.17.16c1.87.17,2.82.5,2.85,1l-.31.34a4.48,4.48,0,0,0-3.34-1l.3-.51-.58-1.62Zm-.11,4.28h.17l2.85,1.17c0,.22-.31.45-.79.69l-1.82-.23.13-.82,0-.33q0-.33-.51-.3Zm.36,3.76,2.34.7v.16l-1.62.41h-.16v-.16l.32,0v-.33c0-.32-.36-.47-1-.44v-.16Zm.79,2.42.49,0,2.85,1.16,0,.65-.15.18-1.33-.26-.31.34a2.28,2.28,0,0,1-1.58-1.89Zm-.72,11.37.82,0c.67.84,1.13,1.26,1.38,1.24l-.47.52a3.94,3.94,0,0,1-2-.55Zm2.8,3.31,1.65.08-.3.67-1.64-.08Zm-3.46,3,.47-.52,2.78-.14,0,.49c-1.31.07-1.95.38-1.92.92a1.58,1.58,0,0,0-1.36-.75ZM101.46,83l-17.2,1.06c-.32,0-.48.14-.47.36l.07,1.31A4.79,4.79,0,0,0,85,88.64c-.65,0-1,.21-.95.54l.09,1.8.34.31L86,91.22q9-.48,14.56-1.1l4.45.1c.18-1.11.37-1.66.56-1.67l.33,0v.16l-.3.51,0,.66.35.31,2-.11c1.09,0,1.62-.46,1.58-1.23a4.94,4.94,0,0,0,2.35.87,1.31,1.31,0,0,0,1.26-1.06l.51.47-.3.51v.16l24.57-1.29.32-.34-.06-1a1.48,1.48,0,0,0-1.06-1.43l.78-.86-.25-1.63.08-1.65q-9.37,0-17.89.45a54.82,54.82,0,0,0-11.26,1.41,46.65,46.65,0,0,0-7.09-.45Zm4.3.6c1.78.56,2.68,1,2.7,1.33v.17h-.17L107,84.69l-.47.52c-.3,0-.55-.46-.72-1.28ZM100.3,86c0-.41.5-.82,1.58-1.23H102A3.56,3.56,0,0,1,101,86.32h-.16Zm-9.48,1H91l.22,1.14,0,.32-.5,0c-.46-.52-.86-.78-1.18-.76v-.16h.16l.66.13c.33,0,.49-.25.46-.68Zm10.43,1.59.47-.52h.33c1.2-.07,1.8.07,1.82.39v.17c0,.19-.25.37-.79.53C101.88,89,101.27,88.85,101.25,88.61ZM123.58,20.9l-.24,1.66-.33,0-.17-.16c-.15-.87-.34-1.29-.56-1.28l-.49,0-.16.18a8.46,8.46,0,0,0,.47,2.59l1.77-.58.69.62v.16l-1.62.41-1-.11.19,3.77L133,27.8c1.61-.2,2.52-.68,2.72-1.46q.33,0,1.05,1.26l1.47-.24,24.58-1.13a87.6,87.6,0,0,0,10.45-1.36l.53.79,3.1-.33c.55,0,.79-.64.73-1.84l-.06-1.14c-.89-2.91-2.23-4.32-4-4.23l-1.15.06a6.11,6.11,0,0,0-2.57,1.12c0-.41-.91-.64-2.66-.68l-11.63.77c-.94,1.37-1.61,2.06-2,2.08l.39-2-8.69.45ZM159,23.48c.1-.66.25-1,.44-1,.64.74,1.2,1.09,1.7,1.06v.33L161,24a3.88,3.88,0,0,1-2-.55Zm-4.07.71,1.83.56,1.3-.23.38,1-.31.35H158c0-.66-.16-1-.38-1l-1.78.42-.82,0Zm-11.38,5.35a45.56,45.56,0,0,0-6.38.67q-5.21.27-5.59,6.2l0,1a4.55,4.55,0,0,0,.94,2.25,2.54,2.54,0,0,0-.71,2c.25,1.74.52,2.6.79,2.59.74-.43,1.11-.72,1.1-.88,0-.47-.43-1-1.23-1.58l0-.49a3,3,0,0,0,1.61-.58h.16c.06,1.09.58,1.62,1.56,1.56l-1.73,1.41v.16l.36.48L135,44h.16l.39,1.12v.17l-3.15-.49-.28.83L133,55.9l-.11,1.15c1,.09,1.49.22,1.5.42-1,.29-1.45.54-1.44.73l.27,5.08.45,2.28c-.22,0-.36.56-.41,1.66l.38,1,.65-.2c1,.19,1.5.44,1.52.74l0,.49-.48.19-1.5-.41-.31.34,0,2.46c.15.76.33,1.13.55,1.12a3.8,3.8,0,0,1,2.05-1.58l.5.13v.17l-2.87,1.63c.11,2,.83,3.38,2.18,4l1.26-1.05h.16l0,.49c-.76.18-1.13.41-1.11.71s.46.5,1.34.59l1.13-.39a6.28,6.28,0,0,1,3.69-1.83,2.54,2.54,0,0,1,.87-2.18q0-.45-1.5-.42L140,71.46h-.16c0,.35-.24.64-.78.86v-.16l-.17-.16a6.57,6.57,0,0,1,2.56-1.28l-.2-.65c.28-1,.64-1.51,1.07-1.53l.67.13h.16l0-.82-.75-8,.22-2.15c0-.66.87-1,2.73-1.13a11.38,11.38,0,0,1,5,1.22c3.37,2,5.28,3,5.74,3l0,.49h-.16l-1-.11h-.17l-.15.17v.33q4.56,5.5,4.59,6l2.1-.77.49,0c-1.07.6-1.58,1.29-1.54,2l0,.33a2.84,2.84,0,0,0,2.45,2.83l-.13.66c0,.66.78,1.33,2.24,2l-.3.51q0,.24,1.35.75L167,74.48l.82,0,.39,1.13,1.75-.91c1.85-.37,2.75-1,2.7-1.79v-.16a5.88,5.88,0,0,0-1.82-3.19v-.17l.49,0,0-.49-.35-.48c-1.55-.16-2.33-.4-2.34-.7l.93-1,0-.49-.19-.48q-1.9-4.35-9.58-10.51c.17-.88.37-1.33.59-1.34l.32,0,.53.63q1.51-.08,2.77-3.6l1.22,1.42h.16q.3,0,.45-.84A11.28,11.28,0,0,0,170,41.47l-.06-1.15q-.27-5-5.88-8.73Q160.7,28.65,143.59,29.54Zm14,3.71,2.17.7a.88.88,0,0,1-.62.69,3.74,3.74,0,0,0-1.84-.72v-.16Zm1.79,2.86c2.14-.55,3.42-1,3.87-1.52l1.12,2.57a6.15,6.15,0,0,0-2.09.93c-.05-.9-1-1.5-2.89-1.82Zm-18,1.6q5.55-.9,5.5-1.77H147l0,.66q9.67.52,11.75,1.69c0,1,.75,1.82,2.09,2.35q-.88,1.84-1.12,6.8v.16l-.83-.12h-.16l-2.08,1.09,0,.49,1.31-.07c-.05.23-.31.46-.79.7l-2.65-.51-.31.34v.16l.52.47H155l-.14.5v.16l1.79-.09.52.47v.16l-1.49-.25-.49,0-.31.35v.33c.07.21.35.42.86.61a3,3,0,0,0,1.59-.91l0,.5c0,.76.6,1.11,1.7,1.06a1.43,1.43,0,0,1-1.27.88l-2.47,0c-.23-1.3-.65-1.94-1.25-1.91-.32,0-.48.14-.47.36l.08,1.63-.65,0,0,.49.34.31.78-.7h.33q-.08,1-1.26,1l-.49,0c-.43,0-.76-.94-1-2.9l0-.33H152l.17.16.49,0a2.28,2.28,0,0,0,1.74-1.24,4.43,4.43,0,0,0-3.51-1.13l-8.51.61h-.16A12.55,12.55,0,0,0,141,46.77c0-.2.25-.37.79-.54l-.38-1,.07-1.81c0-.44-.2-.65-.53-.63a11.61,11.61,0,0,0,.6-4.3Zm14.73-1.1.47-.52.65,0c.82,0,1.27.1,1.34.42l-.48.19Zm-20,4c.39-1.33,1.07-2,2-2.07l.33,0a4.54,4.54,0,0,0-1.31,3.19c-.42-.09-.76-.45-1-1.1Zm-.85,5.8c0-.41.83-.89,2.55-1.45l.33,0a1.8,1.8,0,0,0,.72,1.12l-3.27.33h-.17l-.15.17Zm30.45,1a4.58,4.58,0,0,1,2.87-1.63h.16V46l-.15.17c-1.51.46-2.25,1-2.22,1.6v.16l.17.15h-.17Zm-31,1.79c.11-.53.31-.81.61-.85l1.32.09L135.29,50c-.19,0-.36-.25-.53-.79Zm3.18,10.51,1.31-.07,0,.66.37,1h-.16l-.15.17A3.79,3.79,0,0,1,138,59.9Zm-4.14,5.64.31-.35h.16c.23,0,.46.3.7.78l-.31.34Zm4,7.18H138a1.38,1.38,0,0,1,.88,1.11c0,.54-.12.88-.44,1l-.37-.81-1.61.58h-.16l0-.65c1.09-.06,1.62-.47,1.58-1.24Zm2.08,2a1.14,1.14,0,0,1,1.11-.72h.33l.34.31,0,.82h-.17Zm29,4.4-20.92,2.08L146.12,81l0,.32,2,1.05-.31.34-.5,0-1-.93c-.56,1.23-1.24,1.87-2,1.91v.16L145,85l-.86,2.52v.16l12-.3,6.23-.32,11.45-.93v-.33l-.33,0v-.17l1.29-.39h.17l-.29.83.35.31h.33a4.54,4.54,0,0,0,2.07-1.26l.32,0c0,.77.61,1.12,1.7,1.06l.82,0,.31-.34L180.29,81,180,80.7a1.91,1.91,0,0,0-1.12.56h-.17l-.34-.31v-.16l.16-.17c1.18-.37,1.76-.67,1.75-.92l0-.65-.35-.31-.65,0a2.7,2.7,0,0,1-1.59,1.07h-.17v-.16l.15-.18v-.16q0-.7-5.94-.51Zm-28,1.79a29.48,29.48,0,0,0-7.3,1.7v-.17c0-.24.52-.49,1.6-.74l0-.33-10,.53-.31.34,0,.49.6,5.07-.11,1v.16l.18.16.64-.2,5.91-.15c1.08-.22,1.61-.57,1.58-1.06h.17a5,5,0,0,0,3.18,1,10.75,10.75,0,0,0,4.67-1.72l0,.49a2.55,2.55,0,0,0,1.92-.92v-.17l-.17-.15-.81.2.09-1.31v-.33l-2-.39L143.16,81l-.34-.31Zm-14,2.87c0-.49.34-.84,1.1-1,1.2,0,1.81.18,1.82.39l-2.76.64Zm10.71.59c0-.19.26-.32.8-.37h.17l-.41,1.5c.13.54.42.8.86.78v.32l-1.13.23h-.17l0-.82c0-.33-.41-.47-1.17-.43,0-.2.36-.43,1.11-.72h.16Zm9.56.48,2-.26c.55,0,.89.11,1,.44a4.48,4.48,0,0,1-2.4,1.28h-.16Zm19.12-66.06L166,19l.37,7,.17.16,28.66-1.83,28.2-1.15.26-1.16q-.26-5-2.13-6.3Zm55.07.57,1.32.1-.14.5.22,1.13v.16l-.33,0a2.68,2.68,0,0,0-1.68-.73l-.32,0-.16.17v-.17C221,19.9,221.34,19.5,221.33,19.23Zm-26.2,8-1.79.25q-6.09,2.91-5.79,8.52v.16c1.65.16,2.49.39,2.5.69l-2.62.14q-2.1,3.77-7.13,20.58-5,12-4.84,14.22l0,.66q1.66,4.18,5.31,4l.49,0c1.39-.07,2.54-1.12,3.45-3.13Q186.48,65,188,64l5.08-.27,12.46-.49.81-.2.61,2.1q3.73,9.5,7.55,9.3A5.76,5.76,0,0,0,219,71.6c0-.41-.6-1-1.74-1.72l0-.49h.16l1,.94.47-.36a10.94,10.94,0,0,0-1.74-5c-.15-1.31-.4-1.95-.76-1.93h-.16l-1.3.39v-.17c.73-.72,1.08-1.23,1.07-1.53q-4.58-9-10.78-23.75-3.71-11.14-9.93-10.82Zm.05,10.34h.16c.4,1.29.93,1.92,1.58,1.88l-.12.83,0,.49c0,.85.62,1.53,1.75,2.05l.09,1.8.43,1.94q4.08,8.79,4.11,9.48l-13.6.71.12-.82c2-5.5,3-9,2.91-10.34l-.08-1.48-.17-.15c1.07-.47,1.59-1,1.56-1.73V42l-.18-.15-.94.87.28-1c.85-.05,1.54-1.45,2.08-4.22Zm-4,21.41a2,2,0,0,1,1.73-1.41l.32,0a2.46,2.46,0,0,0-.88,1.85,1.91,1.91,0,0,1-1.17-.43ZM169.44,79.29l-.31.35.28,5.24a3,3,0,0,0,.59,1.93l1.78-.42,9.84-.35a7.7,7.7,0,0,0,3.56-1,9.43,9.43,0,0,0,3.15.66l1.48-.08,2.44-.46V85q0-.33-.51-.3l0-.5.67.3,1.77-.59h.16c.2,0,.37.26.54.8l-.16.17-1.17-.43-.31.34,0,.33.17.16,23.78-.92c6.34-.33,9.49-.72,9.47-1.16l-.34-6.55-.35-.31Zm60.08-63.77q-15.72,1-15.68,1.81l.32,6.06.34.31,3.61-.19a8.39,8.39,0,0,0,3.57-.84,15.62,15.62,0,0,0,4.46.59l12.61-.83h.16c.35-1.33.86-2,1.54-2.05l-.86-.78v-.16l.15-.17.35.31a7.23,7.23,0,0,1,2.65.35l-.42,1.5v.17c0,.43,1.56.57,4.62.41l.82,0c2.84-.15,4.25-.44,4.23-.88v-.16l-.58-1.62v-.16l.83.12h.16l2.1-.77v.17l-1.1,1v.16l.18.16,1-.38h.16l-.13.5c0,.28.42.75,1.22,1.42l5.73-.3c.33-.1.47-.44.44-1l-.13-2.62-.35-.31-1.93.75h-.17l-.35-.31v-.32l1.14-.06c.55,0,.87-.21,1-.55l-2.38-1.52,1.47-.07a1.38,1.38,0,0,0,1.27-.89v-.16L261.3,14Zm1.71,1.39c0-.19.26-.37.8-.53l2.47.2.49,0,0,.33a5.56,5.56,0,0,1-2.9,1.13h-.17l.14-.5v-.16l-.81.21Zm16.66,1.26c0-.16.2-.34.63-.52a2.71,2.71,0,0,1,1.54,1.07V19l-.65,0-1.51-.58ZM244,19l.93-1,1-.05.17.15a1.59,1.59,0,0,1-1.41,1.23l-.66,0Zm-14.76.6.47-.51.32,0c.55,0,.89.12,1,.44l0,.49-.16.17-1-.44-.32,0-.16.17V19.8Zm16.31.79.62-.69,1.14-.06,1.33.26a1.08,1.08,0,0,1-1.1.88l-2-.22ZM236.42,25a22.44,22.44,0,0,0-5.84,1.29q-9.63,4.49-9.23,12l.06,1.15a10.4,10.4,0,0,0,1.77,5.66l1-.38h.16l0,.33-.49,0v.33A13.2,13.2,0,0,0,227,48.51c1.85,1.22,4.79,2,8.84,2.33l5,1.87c5.61.64,8.52,2.73,8.7,6.28l-.09,1.32q-.9,5.47-9.22,5.91a8.45,8.45,0,0,1-7.39-3.07q-3.84-7.51-6.14-7.4l-1.15.06c-2,.11-3.39,1.61-4,4.49.25,1.19.56,1.77.91,1.75a15.9,15.9,0,0,0,1.37,4.2q5.44,7.6,16.63,7a23,23,0,0,0,7.95-1.9v-.16l-.17-.16-.08-1.47c-.06-1.2-.58-1.77-1.56-1.72v-.17l3.26-.5.65,0c1.65,0,2.48.28,2.5.69-1.53.08-2.26.83-2.18,2.25v.16l.17.16a2.65,2.65,0,0,0,1.44-.73c0-.22-.18-.32-.51-.31l0-.32.33,0,1-.22c3.61-2.35,5.31-5.28,5.13-8.81l-.43-1.95c.54,0,.81-.2.79-.53l0-.5-.68-.62.23-1.81L258,53.29c-1.28-3.43-2.74-5.11-4.37-5l-1,0v-.17l.3-.51,0-.49q-10.16-4.23-15.65-3.94h-.16v.16l2.42,2.34v.16l-.82,0c-1.86,0-2.8-.24-2.83-.68l.64-.36-.43-2c0-.74-1.37-1.16-4-1.27l-2.77.31h-.18l0-.65-.21-.81a2.9,2.9,0,0,0,1.75-1.08l0-.49c0-.17-.41-.42-1.19-.76a14.15,14.15,0,0,1,2.73-4.42l-.22-1a3.3,3.3,0,0,1,1.38-1.87l-.35-.48-.06-1.14.15-.18a2.53,2.53,0,0,1,1.36.75h.16A1.84,1.84,0,0,1,235.91,28l.67.13v.33c-1.66,1.12-2.5,1.94-2.5,2.43l.35.31.32,0a2,2,0,0,0,1.28-.72l.33,0,0,.33-.16.17c-.33,0-.49.14-.47.36s.43.47,1,.44l1-.06a1.07,1.07,0,0,0,1.11-.71l1,.77c3.89,1,5.87,2.15,5.94,3.46l2-.43a3.53,3.53,0,0,1,2.34.87h.17l-.21-.81q0-.49.3-.51l.68.46h.17l1.46-.24q1,.27,1,.6l-.65,0-1-.11h-.16l.25,1.63c0,.44-.29.67-.95.71H251l-.73-1.28h-.16c-.16,0-.66,1-1.49,2.87v.16l.17.16,1.63-.25-.28,1v.16l1-.05c2.6-.14,4-1.74,4.19-4.82-.74-3.57-1.92-5.32-3.56-5.23-.22,0-.32.29-.29.83l-1.88,1.72a1.91,1.91,0,0,0-1.17-.43l-1.15.06a3.34,3.34,0,0,0-1.61.58l-.19-.48c-1.33-.29-2-.91-2.07-1.87l-.81.21-1.49-.25v-.16l6.86-.69,4.28.1,0-.32-.87-1.11q-4.56-3-6.89-2.92h-.17l-.15.17.37.8h-.17a20.36,20.36,0,0,0-8-1.39Zm2.37,1.19.31-.35h.16l1.67.41v.33l-.48.19-1.67-.25Zm2.35,1v-.16c2,.2,3,.47,3,.83l-.81.2-1.64.09-.48.35.21.81v.17h-.18l-.17-.16h-.16l-1,.38v-.33a3.69,3.69,0,0,0,1.19-2.2Zm-13.22,1.52a3.76,3.76,0,0,1,2.66.68l-2.08,1.09-.33,0v-.16l.64-.2v-.33c-.33-.53-.68-.78-1-.77v-.17Zm9.35-.16.49-.19,1.32.09a1.76,1.76,0,0,1-1.43,1.06l-.65,0v-.17l.64-.2-.35-.47Zm-7.61,14.84c.07-.33.49-.52,1.29-.56h.16a8.38,8.38,0,0,1,3.52,1.29,5.68,5.68,0,0,1-3.69,1.68,4.78,4.78,0,0,1-3.5-1l.46-.51,4.3.43.31-.35,0-.49-.35-.47a5.25,5.25,0,0,0-2.11.44v-.17l-.33,0Zm11,3.2.13-.66c0-.36.68-.67,2.09-.93l.66.13,0,.32-.47.52-1.47.08c-.27,0-.43.24-.46.68l-.33,0Zm-2.1.6h.16l.16-.17.32,0,2,.23v.16c0,.33-.41.57-1.28.73a1.29,1.29,0,0,1-1.36-.91Zm9.34-.49,1.14-.06v.17l-.15.17v.16l.17.16c.54,0,.82.09.83.28l.18.16,0,.65L247,48.6l-.05-1,1.13-.38v-.16l-.18-.16Zm-11.23,2.07v-.16c1.77.4,2.67.73,2.68,1l0,.49-2.46.13-1-.27Zm8.13,1.55a3.12,3.12,0,0,1,1.58-1.24l-.12.83,0,.66-.49,0Zm5.86-1.13.31-.35a2.12,2.12,0,0,0,1.51.75v.16l-.46.52-1,0,0-.82Zm-3.1.49.31-.35,1.65.08a1.48,1.48,0,0,1-.91,1.53q-.41,0-1.05-1.26ZM217.28,76.78l-.31.34,0,.49a29.8,29.8,0,0,0,.58,4.9L217.49,84l3.28-.17c.86-.21,1.29-.45,1.27-.72a9.68,9.68,0,0,0,3.83.78l8.5-.77,30.31-1.59.31-.34-.35-6.72-.17-.16-7,.54Zm31.77,1.12c0-.21.3-.45.95-.7l.32,0v.16c-.44,0-.65.15-.64.37v.16l.17.15,1-.54.33,0c-.37.79-.73,1.19-1.09,1.21l-.32,0a.61.61,0,0,0-.69-.62Zm3.68-63.77-.31.35.12,2.29.24,1.47-.11,1.15.09,1.64c0,.16.24.32.68.46l3.76-.36,1.33.25.31-.34,0-.33c-.88-.06-1.32-.2-1.33-.42l2.13-.11.31-.35c0-.35-.92-.69-2.68-1,0-.21.36-.4,1.12-.55,1.32.15,2,.61,2,1.37l-.76,1.19V21l3.28-.17.15-.18a12.53,12.53,0,0,0-1.95-2.85L256.83,17h-.17c-.27,1-.52,1.5-.74,1.52q0-1-.54-1l-1.8.09a3,3,0,0,0,.58-1.51h.33l1.19.76.47-.36L255,15.82v-.16l.15-.17,1.82.23h.16q.29,0,.6-1a5,5,0,0,1,1.85.89q3,3.3,4.61,3.21h.17l.31-.34-1.21-1.09v-.16l3.75-.53h.17L267,17l.41,1.62,1-.22h.17a2.16,2.16,0,0,0-.59,1.35l0,.33.35.47.16-.17,3.95.28.66,0c.08-1,.22-1.49.41-1.5h.17l.51.3,1.29-.39v.16l.17.16c0,.16-.2.33-.63.52l.35.31,1.47-.08.31-.34-.08-1.64,1.16.27.49,0a4.7,4.7,0,0,1,2.07-1.25l.82-.05,0-.49-.69-.78v-.17l1.14-.22h.16a1.68,1.68,0,0,1,1.7,1.06c-1.67.08-3.63,1.23-5.9,3.43V20h.16l.16-.17,1.64-.09,11-.24h.16a19.77,19.77,0,0,0,6.67-1.34,3.87,3.87,0,0,0,3,1l1.64-.09.31-.35-.28-5.24a3.07,3.07,0,0,0-.59-1.94l-3.27.34-1,0-14.93.45-.49,0a26.12,26.12,0,0,0-8.78,1.77c0-.6-.65-1-1.86-1.21l-.82,0-1,.38-4,2.34c-.9-1-1.48-1.56-1.73-1.55l-.28.84-.49,0,.29-.67-1.35-.75-1,0L260,14.9c0-.65-1.21-1-3.51-1.13l-3.11.33Zm8.07.4.48-.19,1.84.72c0,.77.39,1.13,1.05,1.1v.16a1.84,1.84,0,0,0-1.11.72l-.33,0v-.17c-1.26-1.05-1.91-1.84-1.93-2.36Zm9.69,0,.8-.53.32,0,1,.93-1.44.74-.71-1Zm-.61.86,1.16.26v.17l-.48.19q0,.33.51.3v.33l-.65,0a1.48,1.48,0,0,1-.86-.77Zm26.8.4c-.05-1,.52-1.62,1.7-1.9.19,0,.37.26.54.8,0,.27-.71.64-2.08,1.09Zm-24.91,1.14a1.65,1.65,0,0,1,1.42-1.06l.33,0a4.1,4.1,0,0,0-.73,1.84h-.16c0-.44-.31-.64-.85-.61ZM266.13,19a1.91,1.91,0,0,0-1.12.56l1.35.75.33,0,.31-.35,0-.49-.51-.46Zm22.21,3.77a36.12,36.12,0,0,0-5.38.77l0,.33.84.45-.31.34-.49,0a1.76,1.76,0,0,1-1.71-1.22H281c0,.44-.29.68-.94.71a9.58,9.58,0,0,0-2.83-.67,6.75,6.75,0,0,0-3.24,1A24.85,24.85,0,0,0,268.2,24l-2.14.11q-4.17.22-5.39,3.57c.07.43.25.64.52.63l1.48-.08.15-.17c.68.35,1,.66,1,.93l-.64.36-1.83-.56-.66,0-.31.34L262,30.23l0,.49c-1,.6-1.53,1.07-1.57,1.4l.65,9.16.21,4.1-.06,2,1.17.44h.17q2.79-3.77,3.9-3.82V43.8l-.86-.77v-.17c.66,0,1-.16,1-.37a1.21,1.21,0,0,0-1-.61v-.16h.17c1.33.4,2,1.13,2.08,2.19l0,.49a2.59,2.59,0,0,1-.58,1.51l-1.83-.56-1,.22c-.52,2.11-1,3.17-1.48,3.2h-.34l-1.15-.1v.16l-.15.18,0,1,.62,2.43-.23,1.82v.16l2.31.21a18.92,18.92,0,0,0,4.37-1.22v-.16l-.34-.31a2,2,0,0,1,.74-1.52l.49,0,1.2.93.62-.69L271,50.13l.31-.34,3.12-.16,9.65-.84,3.45.15v-.17l-.22-1c0-.82.64-1.4,2-1.75l.33,0c-.93,1-1.38,1.8-1.35,2.38v.16l.34.31,1.8-.09q4.26-.23,4.09-3.5v-.17a3,3,0,0,0-.75-1.76q-2.13-2.19-7.17-1.93a27.79,27.79,0,0,0-7.63,1.72l0,.33a7,7,0,0,1,2.48.36V44l-.33,0q-.47,1.33-.75,1.35l-.32,0-.18-.16v-.16l.16-.17,0-.33-1.86-1.22.13-.49v-.17l-1.46.41a19.59,19.59,0,0,0-4.81-.74l-1,0-.15.18c-.51,1.78-1.12,2.68-1.83,2.72H269a12.18,12.18,0,0,0,1.41-4.51,6.7,6.7,0,0,0-1.15-3.23c.87,0,1.28-.56,1.23-1.54l-.53-3.91c0-.77.87-1.2,2.72-1.3l7.56.1.33,0a6.65,6.65,0,0,0,3.55-1.17h.17a.57.57,0,0,1-.46.68.43.43,0,0,1-.16,0v.33l6.57-.18c3.06-.16,4.75-1.23,5.09-3.22v-.17c-1,.06-1.74-.78-2.11-2.52v-.32l.32,0,.85.45.31-.35v-.16q-.95-1.56-6.32-1.48Zm-26,3.16a2.6,2.6,0,0,1,2.09-.93l3,.5v.17l-.81.2-4.1.05Zm17.68-1.25,2.17.54v.16l-.31.35-2.15-.38v-.16Zm-4.95,2.72.81-.21,1-.05c.33,0,.51.25.54.8l.33,0,0-.33h.16v.17A2.46,2.46,0,0,1,276,28.83c-.16-.87-.45-1.29-.89-1.27Zm-11.47,3.73,1,.12h.17l.15-.18.24,1.47c-1-.22-1.5-.47-1.52-.74Zm3.15,16.1q.93,0,3.51-2l.84.44c0,.22-.42.41-1.28.56a1.13,1.13,0,0,0,.71,1.12l1.31-.07,0,.33q-.06.33-.78.69l-1.81-.07h-.16l-.16.18.37.8v.16l-1.66-.24v.16l-.15.18,0,.81-1.17-.43,0-2.46v-.17Zm14-1.39.49-.19,2.19,1h.16q.06,1.09-1.56,1.56H282v-.17l.25-1.49c-.16-.43-.61-.63-1.35-.59ZM269.07,47A2.6,2.6,0,0,0,267,48l0,.33,1.31-.07q.82,0,1-.54l0-.66Zm1,6.36Q269,54.84,265.55,55l-1.64.09a5.35,5.35,0,0,1-2.14-.22v.16l-.15.18,0,.82.86.77a13,13,0,0,0-.58,4.47l.11,2.13a26,26,0,0,0,.92,5q.15,2.79,8.17,2.37l2.95-.16a27.06,27.06,0,0,0,6.68-1.17,57.79,57.79,0,0,0,9.39.5l2.3-.12q6.23-.33,6-4.92l-.21-.81q-1.74-2.7-8.33-2.35l-4.92.25-.45.68v.17l-2.64-.19-.66,0c-.84,0-1.32.29-1.44.73a18.3,18.3,0,0,0-6.59-.47,2.49,2.49,0,0,1-2.57-1.84c.64-.5.89-1.94.76-4.31l-.17-3.28-.34-.31ZM264.93,62c-.1-1.85.73-2.83,2.48-2.92-.34,1.88-1.11,2.85-2.32,2.91Zm5.78,3.81.49-.19,1.33.26c-.9,1.69-1.51,2.54-1.84,2.56l-.17-.16.61-.85-.05-1-.36-.47ZM289,67.26l.81-.21.66,0,.06,1.16.35.47v.16l-.49,0a4.69,4.69,0,0,1-1.4-1.57Zm14.38,4.83a14.44,14.44,0,0,0-5,1.91h-.17c0-.22.31-.4,1-.55l0-.65L287,73.12a75.18,75.18,0,0,0-9,1.12l0,.33.49,0v.33l-.48.19a2.36,2.36,0,0,0-1.33-.25v-.17l.31-.51,0-.32-.17-.16-1.47.24-2.14,0q-2.79.15-3.87,1.35h-.16l-1.37-1.08-.33,0c0,1-1,1.53-3,1.64l-.33,0c-.16,0-.4-.37-.71-1.12h.16l-.34-.31-7.37.38-.31.35.24,4.58c0,.17.4.37,1.18.6a18.41,18.41,0,0,1,4.37-1.21l.49,0a4.76,4.76,0,0,1,3.85,1.28,23.08,23.08,0,0,0-4.46-.43l-.82,0a10.81,10.81,0,0,0-4.36,1.37v.33l8.06.07L285,80.46h.17a3.22,3.22,0,0,1,2.54-1.61h.17v.33c-1.18.34-1.77.64-1.75.91v.17l.17.15h.16l.16-.17,1.31-.07,2.64.19h.33a1.09,1.09,0,0,0,1.1-.88l-.36-.64v-.16c.49-.11,1.1-1,1.84-2.57.72.24,1.12.49,1.19.76V77l-1,.21,0,.33.82.12,5.25-.27,1.63-.25c0,.87.56,1.28,1.54,1.23l0,.49-.49.19c-.54,0-1.22-.43-2-1.37h-.16l-.16.17-.46.68-.49,0-1-.77c-.22,0-.32.29-.29.84l-1.31.06-.63.53c0,.57,3.33.73,9.88.47l.31-.51,0-.5-.71-4.06.26-1.33a2.48,2.48,0,0,0-2.2-1.2ZM267.13,75.8l1.46-.41h.17l.17.16-.79.7.57,1.44v.17c-1.24-.68-1.87-1.35-1.91-2Zm16.5,1.27c0-.28.3-.46,1-.55.1-.66.24-1,.44-1l.32,0c1.1,0,1.66.32,1.69.9v.17l-1.64.09-1.77.58Zm-13,2.5c0-.39.57-.69,1.76-.92h.33l.51.46,0,.33Zm3.13.16a.89.89,0,0,1,.95-.71L276,79v.17q-.09.5-1,.54Zm16.41-.37.49-.19H291l-.46.51Zm4.47-67.59c-2.17.36-3.25.75-3.22,1.15l.34.32h.16c0-.33.09-.5.31-.51l1.14-.06-.3.51v.16l.7.79-1.33-.26-.31.34c0,.44-.13.66-.46.68l0,2.47q.09,1.8,5.83,1.5l1.47-.08A3.9,3.9,0,0,0,302,17.46l-.34-.31-.33,0-3.09.65-.92-1.92a.88.88,0,0,1,.62-.69,6.75,6.75,0,0,0,3.5,1l1.94-.59v-.33l-1.8.1L301.2,15v-.33l1.15.1,1-.05.16-.17,1.57,1.72,0,.34-1.19-.76h-.17l-.15.17.19.48-.26,1.33c.25.64.49,1,.71.95l33.25-1.75a4,4,0,0,1,2.37-1.76H340l-.14.5.51.46-.3.51V17l8.52-.45.31-.35-.35-6.71-.17-.16-2.62.3-4.59.08-2.46.13-8.85.3-4.42.39c-.22,0-.31.29-.28.84l-1.36,2.37-1,.06a2.59,2.59,0,0,0-1.44.73l-.33,0,.3-.68-.37-.63v-.33h.16l.17.15,1.48-.07c.56-.31.87-.65.93-1v-.16l-.17-.16-1.94.6h-.17l-.52-.63c1.74-.23,2.6-.5,2.58-.8v-.16l-8.53.28-3.61.19a29.45,29.45,0,0,0-8.63,1.44c0-.33-.53-.58-1.52-.74l-1.15.06-1.28.56c0-.22-.4-.36-1.17-.43h-.17l-.15.17.38,1v.17l-.82,0a7.4,7.4,0,0,1-2.22-1.53Zm9.24.83,1.15-.06.1,1.8c-.77,0-1.18-.49-1.24-1.58Zm13.95-.4,1.8-.09c0,.76.33,1.13.87,1.1,0,.41-.67.72-2.08.93-.19,0-.39-.63-.59-1.94Zm-9.89,2.49c0-.38.56-.68,1.75-.91h.16l0,.49-.3.51-.66-.13-.82.21Zm21.42-1.94,1-.05-.27,1.16c0,.33.35.48,1,.44,0,.3-.52.55-1.6.74a1.13,1.13,0,0,1-1.19-.59v-.33l.51.3h.16l.47-.51ZM299.22,15l1.29-.56h.16l0,.32a.59.59,0,0,0-.63.53.86.86,0,0,0,0,.16l-.49,0-.35-.31Zm9.22.33.49,0,.87.77H310l.16-.17.18.49-.47.35h-.16l-1.16-.11Zm-14.85,1.77,2.35,1v.17h-.33c-1.33-.28-2-.63-2-1Zm11.51.38,1.13-.39,2.46-.13c0,.33-.57.53-1.77.59l-1.64.08-.16.18Zm15.78,3.12a17.21,17.21,0,0,0-10.17,3.49c-1,1.14-1.75,1.73-2.37,1.76q-3,1.52-5.08,6.68-2.77,9.63-2.54,14.1c.06,1.19.37,1.78.91,1.75l.05,1a21.11,21.11,0,0,0,2.61,9.07q4.48,7.81,9.27,7.56l0,.33-1-.28-.31.35,0,.32a27.47,27.47,0,0,0,10.78,2.07l2.13-.11a4.56,4.56,0,0,0,3.22-1.32l1.49.25,1,0A7,7,0,0,0,335,64.86v-.33h-.17l-.81.2v-.32l.81-.21,1.47-.08.47-.52,0-.32-2,.26h-.16a1.57,1.57,0,0,0-.55-1.12l1.14-.06,3-1.64,0-.32-2.33-.54v-.16l.31-.35h.33l1.35.75.64-.37c0-.68-.49-1-1.37-1.07h-.33l-2.28.45c-1.09-.05-1.66-.46-1.7-1.22l2.78-.15,0-.49-.17-.16,1,.11c2,1.32,3.23,2,3.55,2v.17c-.87.15-1.29.34-1.28.56v.16c0,.16.45.36,1.34.59h.17q2.7-4.91,2.52-8.18v-.17a4.21,4.21,0,0,0-3.68-4.24l0,.33a18.62,18.62,0,0,0-1.43,4l0,.5-.82,0A2.68,2.68,0,0,0,335.28,54l-1-.11L332,57l0,.82-.65.2.22,1.14-.31.34a1.57,1.57,0,0,0-.55-1.12l-.46.52c-1,.49-1.58.85-1.59,1.07l0,.33c3.19.3,4.79.65,4.82,1.06v.16h-.16l-3.71,1.34-1.82-.39v-.17H328l.84.29.31-.35c0-.46.45-.87,1.42-1.22,0-.35-1.34-.5-4-.45a7.41,7.41,0,0,0-4.36,1.38l-.35-.31-1.47.08-.35-.31c.88,0,1.31-.18,1.3-.4v-.16l-1.32-.1-1.29.56-.54-1c-2.34-1.27-3.59-2.3-3.77-3.08l-.81.2-.33,0a1.48,1.48,0,0,1-1.53-.91,1.07,1.07,0,0,0,1.11-.71l0-.49-1.63-2.87.1-1.16-.65,0a3.71,3.71,0,0,1-1.75,1.07h-.17v-.16l.27-1,1.8-.1L311,51l-.37-.8.28-.84V49.2l-.17-.15c-.55,0-.83-.07-.84-.29q1,0,1-.54l0-.33a7.58,7.58,0,0,0-.8-2.75c-1.11-.25-1.67-.49-1.68-.74v-.16h.17l.17.16.49,0a1.34,1.34,0,0,1,1.12-.55l-.07-1.31a9.19,9.19,0,0,1,.35-2.81c1.64-4.14,2.44-6.75,2.38-7.85v-.16l.82,0c.63,0,1.47-.68,2.53-1.94,1.31-.07,1.92-.87,1.84-2.4l-.39-1.13h.17L318,26l.33,0v.17l-.16.17v.16c.62,1.29,1,1.92,1.25,1.91l.49,0,.31-.34-.57-1.62.31-.34.49,0,.52.47v.16l-.11,1.16h.17l.17.15.49,0a2.38,2.38,0,0,1,1.43-.9l0,.82.35.31.82,0a7.08,7.08,0,0,1,3.5,1,4.36,4.36,0,0,0,3.85,1.45v.16l-.15.17,0,.82c.06,1.26.95,2.42,2.64,3.48l-.12.82,0,.66a2.3,2.3,0,0,0,2.19,1l1.31-.07c3-.59,4.51-1.66,4.43-3.18l0-.66q0-.82-2-2.85l.4-1.67-1.67-.57.46-.68v-.16c-.06-1-1.15-2-3.29-3.12-.13,1.11-.32,1.66-.57,1.68l-.49,0v-.16l.54-2.33a20.52,20.52,0,0,0-13-3.43Zm-2.11,3.72,1.16.27c0,.33-.4.68-1.09,1Zm-12.28,7.05.81-.2h.16l1.19.76.82-.05.15-.17c0,.36-.51.71-1.58,1.07-1,.05-1.5-.36-1.55-1.23Zm30-1.41,1-.37h.17l.17.15q.54,1.62,1.56,1.56l-.63.53-1-.11-.66,0-.57-1.61Zm-4.19,1.54,1.13-.39c.77.21,1.17.41,1.18.6l0,.65q-1.14.18-1.11.72h-.17l-.17-.16.14-.5v-.16l-.85-.62Zm5.15,1.21a1.93,1.93,0,0,0,1.17.43l.33,0,1.62-.57.06,1.14-1.64.25a2.28,2.28,0,0,1-1.67-.57ZM302.84,37c0-.68.54-1.21,1.72-1.57v.16h.33l0,.82,1.55,1.23c0,.44.63.62,1.83.56v.16c-1.29.54-1.91,1.28-1.86,2.24l-3.11.16v-.16l.75-1.36-.36-.63V38.4c1-.32,1.45-.62,1.43-.89v-.17l-.35-.31a2,2,0,0,0-1.27.73h-.33Zm4.34,4.37c0-.71.37-1.22,1.23-1.54V40h.33v.16a1.62,1.62,0,0,0-.74,1.52l-.82-.12Zm-2.92.81h.33a4.41,4.41,0,0,1,2.19,1l-.48.19a1.1,1.1,0,0,0-1.18-.6l-.33,0-.16.17Zm-1,3.67c0-.39,1.22-.78,3.72-1.18L306.76,46l-.83-.29-3.26.5q-.5,0-.51-.3v-.17h.33Zm-1,2.19c0-.22.15-.34.47-.36l.16-.17q2-.1,2.28-.45l0,.33a4.87,4.87,0,0,1-1.94.76h-.16Zm1.52,3.86.63-.52q2.9-.16,4.58,2.88h-.16a3.67,3.67,0,0,1-1.85-.88,3.4,3.4,0,0,1-2.39,1.44l-.86-.78v-.16l1,.44h.16l.31-.35v-.32q-1.38-1.05-1.41-1.74Zm31.31-1.31-.47.52v.16l.52.46h.16l1.46-.41v-.16l-1-.61Zm-31.66,4.12.66.13c0,.19-.25.37-.79.54l0-.49Zm2.34.7.33,0,1,.44V56l-.16.17,0,.49c0,.33.84.45,2.48.36v.17a10.79,10.79,0,0,0-3.7,1.51h-.17l.3-.5-.86-.78v-.33c.65,0,1-.16,1-.38v-.16Zm8.11,4.34c.41,0,.84.72,1.27,2.24l2.29-.29,1.15.11v.16l-1.13.38-3.8-.29h-.16v-.16Zm8.57,3.5.49,0a4.3,4.3,0,0,0,2.52,1.18c-.59,1.23-1.16,1.87-1.7,1.89a5.34,5.34,0,0,0-1.29-2.72Zm5.36,2c0-.77.53-1.29,1.72-1.57h.16c0,.79-.47,1.37-1.55,1.72H328Zm-1.76.75,1.64.07.65-.19h.16a.89.89,0,0,1-.62.69l-1.8-.07h-.17v-.33ZM328,70.82l-.64.19q-17.19,1.23-17.16,1.89a5.49,5.49,0,0,0-3.16-.82l-7.81,1.39a15.43,15.43,0,0,1-4.15-.76l0,.32.17.16a20.92,20.92,0,0,0-.7,5.46l0,.49a1.12,1.12,0,0,0,.7,1.11L298,80.1l36.18-2.39,4.11.11h.33l.46-.52,1.34.42.82,0c.43-.24.63-.53.61-.85a3.24,3.24,0,0,0,2.35.86l1.31-.07,5.55-.78.49,0q.53,0,.54-2.16c-.06-1.2-.26-1.79-.58-1.77l.42-1.34-.24-1.47h-.33l-2.31-.2c-.44.08-.65.25-.63.52l0,.49.17.16,1.3-.4h.16l-.43,1.17.71,1v.16l-.18-.16c-2-.17-3-.39-3-.66v-.16l.16-.18,1.15.11.49,0,.16-.17c0-.16-.46-.36-1.34-.59l.11-1v-.16l-.17-.16q-1.65.09-1.56,1.56a7.34,7.34,0,0,0-4.33-1.08l-.49,0a2.09,2.09,0,0,0-1.92,1.09,5.25,5.25,0,0,0-3.34-1H336l-5.55.62Zm-11.31,3.71c0-.74.43-1.26,1.4-1.56l.37,1a1.9,1.9,0,0,1-1.12.55Zm18.05-.46,1.5.42v.16a2.45,2.45,0,0,1-2.07,1.42v-.32l.76-1-.34-.31v-.16ZM345,75.67c.05-.55.2-.83.44-.84l.66,0c.33.07.62.43.88,1.1l-.31.35-.33,0A2,2,0,0,1,345,75.67Zm-25.09,1v-.17l2.65.36.33,0a2.35,2.35,0,0,0,1.45-.57l0,.66c-1.84.32-2.76.64-2.74,1-.68,0-1.25-.38-1.71-1.24ZM336.28,9.75,336,11.41l-.32,0-.18-.16c-.15-.87-.34-1.3-.56-1.28l-.49,0-.15.17a8.28,8.28,0,0,0,.46,2.61l1.77-.59.69.62V13l-1.62.41-1-.11.2,3.77,10.82-.41c1.6-.19,2.51-.68,2.71-1.45.22,0,.57.41,1.06,1.26l1.46-.24,24.59-1.13a89.56,89.56,0,0,0,10.44-1.37l.53.8,3.11-.33c.54,0,.78-.64.72-1.84l-.06-1.15q-1.33-4.36-4-4.22L385.1,7a5.88,5.88,0,0,0-2.57,1.12c0-.41-.91-.64-2.67-.69l-11.62.78c-.94,1.36-1.62,2.05-2,2.08l.39-2-8.69.46Zm35.46,2.58c.1-.66.25-1,.44-1,.64.73,1.21,1.09,1.7,1.06l0,.33-.16.17a3.94,3.94,0,0,1-2-.55Zm-4.07.71,1.83.56,1.31-.24.38,1-.31.34h-.17c0-.65-.16-1-.38-1l-1.78.42-.82,0ZM356.29,18.4a45.54,45.54,0,0,0-6.38.66c-3.46.18-5.33,2.25-5.58,6.21l.05,1a4.46,4.46,0,0,0,.94,2.25,2.51,2.51,0,0,0-.72,2c.26,1.74.52,2.6.79,2.59.75-.42,1.12-.72,1.11-.88,0-.47-.44-1-1.24-1.58l0-.49a2.87,2.87,0,0,0,1.61-.58H347c.05,1.1.57,1.62,1.56,1.57l-1.73,1.4v.17l.35.47.47-.35h.17l.38,1.13v.16l-3.14-.49-.29.83.87,10.31-.1,1.15q1.49.14,1.5.42c-1,.3-1.45.54-1.44.73l.26,5.08.45,2.28c-.22,0-.35.57-.4,1.66l.37,1,.65-.2c1,.2,1.5.44,1.52.74l0,.49-.48.19-1.5-.41-.31.34,0,2.47c.14.76.33,1.13.55,1.12a3.8,3.8,0,0,1,2.05-1.58l.5.13v.17l-2.87,1.63q.15,3.06,2.18,4l1.25-1.05H350l0,.49q-1.12.27-1.11.72c0,.3.47.49,1.35.58l1.13-.39a6.23,6.23,0,0,1,3.68-1.83,2.54,2.54,0,0,1,.87-2.18q0-.45-1.5-.42l-1.74-1.71h-.16c0,.35-.24.64-.77.86V61l-.18-.16a6.55,6.55,0,0,1,2.57-1.28l-.2-.65c.27-1,.63-1.51,1.07-1.53l.66.13h.16l0-.82-.75-8,.22-2.15c0-.65.88-1,2.73-1.13a11.42,11.42,0,0,1,5,1.22c3.36,2,5.27,3,5.74,3l0,.5h-.16l-1-.11h-.17l-.15.17,0,.33q4.56,5.5,4.58,6l2.1-.76.49,0c-1.06.6-1.58,1.29-1.54,2.05l0,.33a2.84,2.84,0,0,0,2.45,2.83l-.13.66c0,.66.78,1.33,2.24,2l-.3.51c0,.16.46.41,1.36.75l1.07-1.54.81,0,.39,1.13,1.76-.91c1.84-.37,2.74-1,2.7-1.79v-.16a5.87,5.87,0,0,0-1.81-3.19v-.17l.49,0,0-.49-.35-.48c-1.54-.16-2.32-.4-2.34-.7l.93-1,0-.49-.19-.48q-1.92-4.34-9.59-10.51c.17-.88.37-1.33.59-1.34l.33,0,.52.63q1.51-.08,2.77-3.6l1.22,1.42H378q.28,0,.45-.84a11.3,11.3,0,0,0,4.24-9.92l-.06-1.16q-.27-5-5.88-8.72Q373.4,17.5,356.29,18.4Zm14,3.7,2.18.71a.92.92,0,0,1-.63.69,3.62,3.62,0,0,0-1.84-.73v-.16Zm1.8,2.86c2.13-.55,3.42-1.05,3.86-1.51L377.06,26A5.78,5.78,0,0,0,375,27c0-.9-1-1.51-2.89-1.82Zm-18,1.6q5.54-.9,5.49-1.76h.16l0,.65q9.68.52,11.75,1.69c.06,1,.75,1.82,2.1,2.35-.6,1.24-1,3.5-1.13,6.8v.16l-.83-.12h-.16l-2.08,1.09,0,.5,1.31-.07c0,.22-.31.45-.79.7L367.34,38l-.31.34v.17l.51.46h.17l-.14.5v.17l1.8-.1.51.47v.16l-1.49-.25-.49,0-.31.34,0,.33c.06.22.35.42.85.61a3,3,0,0,0,1.59-.9l0,.49c0,.76.61,1.12,1.7,1.06a1.43,1.43,0,0,1-1.27.89l-2.46,0c-.24-1.3-.65-1.94-1.25-1.9-.33,0-.49.13-.48.35l.09,1.64-.66,0,0,.49.34.31.79-.69.33,0q-.07,1-1.26,1l-.49,0c-.44,0-.77-.95-1-2.91l0-.33h.17l.17.16.49,0a2.28,2.28,0,0,0,1.74-1.24,4.43,4.43,0,0,0-3.51-1.13l-8.51.61h-.16a12,12,0,0,0-1.17-3.55c0-.19.26-.37.8-.54l-.38-1,.07-1.81c0-.43-.2-.64-.53-.63a11.61,11.61,0,0,0,.6-4.3Zm14.73-1.1.46-.51.66,0c.82,0,1.26.1,1.33.42l-.48.19Zm-20,4c.4-1.34,1.07-2,2-2.08l.32,0a4.59,4.59,0,0,0-1.31,3.19C349.45,30.47,349.1,30.11,348.82,29.47ZM348,35.26c0-.41.83-.89,2.56-1.45h.32a1.84,1.84,0,0,0,.72,1.11l-3.27.33h-.16l-.16.18Zm30.45,1a4.61,4.61,0,0,1,2.87-1.63h.17v.16l-.15.17c-1.51.46-2.25,1-2.22,1.6v.16l.17.16h-.16Zm-31,1.79c.11-.52.32-.81.62-.85l1.32.09L348,38.88c-.19,0-.37-.26-.54-.8Zm3.18,10.51,1.31-.07,0,.66.38,1h-.17l-.15.18a3.92,3.92,0,0,1-1.4-1.57Zm-4.14,5.64.31-.35H347q.33.06.69.78l-.31.34Zm4,7.18h.17a1.37,1.37,0,0,1,.87,1.11c0,.54-.11.88-.44,1l-.37-.81-1.61.58H349l0-.66c1.1,0,1.62-.46,1.58-1.22Zm2.08,2a1.15,1.15,0,0,1,1.11-.72H354l.34.31,0,.82h-.17Zm29,4.4-20.92,2.08-1.8-.07v.33l2,1-.31.35-.49,0-1-.93c-.56,1.23-1.24,1.87-2,1.91v.16l.71,1.12-.86,2.51v.16l12-.29,6.23-.33L386.53,75l0-.33-.33,0V74.5l1.3-.4h.16l-.28.84.34.31.33,0A4.46,4.46,0,0,0,390.08,74h.33c0,.76.61,1.11,1.7,1.06l.82-.05.31-.34L393,69.87l-.34-.31a1.84,1.84,0,0,0-1.12.55h-.17l-.34-.31v-.17l.15-.17c1.19-.36,1.77-.67,1.76-.91l0-.66-.34-.31-.66,0a2.66,2.66,0,0,1-1.58,1.06h-.17v-.16l.16-.17V68.2q0-.69-5.94-.51Zm-28,1.79a30,30,0,0,0-7.3,1.7v-.16c0-.25.52-.5,1.6-.75V70.1l-10,.52-.31.35,0,.49.59,5.06-.11,1v.16l.17.16.65-.2,5.9-.14c1.09-.22,1.62-.58,1.59-1.07h.17a4.94,4.94,0,0,0,3.17,1,10.75,10.75,0,0,0,4.67-1.72l0,.49a2.51,2.51,0,0,0,1.92-.92v-.16l-.17-.16-.81.21.09-1.32v-.33l-2-.39,2.46-3.25-.34-.31Zm-14,2.87c0-.49.34-.84,1.1-1,1.2.05,1.81.18,1.82.4l-2.76.63Zm10.71.59c0-.19.26-.31.81-.37h.16l-.41,1.5c.13.54.42.8.86.78v.33l-1.13.22h-.17l0-.82c0-.33-.41-.47-1.17-.43q0-.28,1.11-.72h.16Zm9.56.49,2-.27c.54,0,.88.12,1,.44A4.35,4.35,0,0,1,360.41,75h-.17Zm18.71-66-.31.34.12,2.3.25,1.47-.11,1.15.09,1.64c0,.16.23.31.68.45l3.76-.36,1.33.26.31-.34,0-.33c-.88-.07-1.32-.21-1.34-.42l2.13-.12.31-.34c0-.36-.91-.69-2.68-1,0-.22.36-.4,1.12-.55,1.33.15,2,.61,2.05,1.37l-.76,1.19v.16l3.27-.17.16-.17A12.69,12.69,0,0,0,387,11.2l-4.32-.75h-.16c-.28,1-.52,1.51-.74,1.52,0-.65-.22-1-.54-1l-1.8.09A3,3,0,0,0,380,9.6l.32,0,1.19.76L382,10l-1.2-.76V9.06l.16-.17,1.81.23h.17q.29,0,.6-1a5.12,5.12,0,0,1,1.85.89q3,3.28,4.61,3.21h.17l.31-.35-1.21-1.08v-.17l3.75-.52h.16l-.31.34.42,1.62,1-.21h.16a2.1,2.1,0,0,0-.58,1.35l0,.32.35.48.15-.17,4,.28.66,0c.08-1,.22-1.49.41-1.5h.17l.5.3,1.3-.4v.17l.17.15c0,.17-.2.34-.63.53l.34.31,1.48-.08.31-.34-.09-1.64,1.17.27.49,0a4.72,4.72,0,0,1,2.07-1.26l.82,0,0-.49-.7-.79V9l1.14-.22H408a1.69,1.69,0,0,1,1.7,1.06q-2.5.13-5.9,3.43v.17H404l.15-.17,1.64-.09,11-.25H417a19.56,19.56,0,0,0,6.67-1.33,3.82,3.82,0,0,0,3,1l1.63-.08.32-.35L428.3,6.9A3.06,3.06,0,0,0,427.71,5l-3.27.33-1,0-14.93.46-.49,0a26.13,26.13,0,0,0-8.78,1.78c0-.6-.65-1-1.87-1.22l-.82,0-1,.37-4,2.35c-.91-1.05-1.48-1.57-1.73-1.55l-.28.83-.49,0,.29-.67L388.07,7l-1,0-1.26,1.22c0-.66-1.2-1-3.5-1.13l-3.11.32Zm8.08.4.48-.19,1.84.72c0,.76.39,1.13,1,1.1v.16a1.77,1.77,0,0,0-1.11.71l-.33,0V10.3c-1.26-1.06-1.9-1.85-1.93-2.36Zm9.69,0,.79-.53.33,0,1,.93L397,9l-.7-.95Zm-.61.85,1.16.27V9.2l-.48.19c0,.22.18.32.5.31l0,.32-.65,0a1.49,1.49,0,0,1-.87-.78Zm26.8.4c-.06-1,.51-1.61,1.7-1.89.19,0,.37.25.53.79,0,.28-.7.64-2.08,1.1Zm-24.92,1.14A1.72,1.72,0,0,1,399,9.25h.33a3.85,3.85,0,0,0-.73,1.84h-.16c0-.43-.31-.64-.86-.61ZM392,12.41a1.92,1.92,0,0,0-1.12.55l1.36.75.33,0,.31-.34,0-.49-.52-.47Zm22.22,3.77a33.81,33.81,0,0,0-5.39.77l0,.33.85.45-.31.34-.5,0a1.76,1.76,0,0,1-1.7-1.23l-.33,0c0,.44-.29.67-.95.71a9.45,9.45,0,0,0-2.83-.68,7,7,0,0,0-3.23,1A24.93,24.93,0,0,0,394,17.4l-2.13.11q-4.17.21-5.4,3.57c.08.43.26.64.53.62l1.47-.07.16-.18c.67.35,1,.66,1,.94l-.63.36-1.84-.56-.65,0-.31.35,1.53,1.07,0,.49c-1,.6-1.53,1.06-1.57,1.39l.64,9.17.22,4.09-.06,2,1.17.43h.16c1.87-2.5,3.17-3.78,3.91-3.82v-.15l-.86-.78v-.16c.66,0,1-.16,1-.38a1.23,1.23,0,0,0-1-.6v-.17h.16c1.34.39,2,1.12,2.09,2.19l0,.49a2.62,2.62,0,0,1-.58,1.51l-1.83-.56-1,.21c-.52,2.11-1,3.18-1.47,3.2l-.34,0-1.16-.1v.16l-.15.17.05,1,.62,2.43-.23,1.81v.17l2.32.2a19.41,19.41,0,0,0,4.37-1.21v-.17l-.34-.31a1.9,1.9,0,0,1,.74-1.51l.49,0,1.2.92L397,45l-.08-1.47.31-.35,3.11-.16,9.65-.83,3.46.14v-.16l-.21-1c-.05-.82.64-1.41,2-1.75l.33,0c-.93,1-1.39,1.8-1.36,2.37V42l.35.31,1.8-.1c2.84-.15,4.2-1.31,4.08-3.5v-.16a2.92,2.92,0,0,0-.75-1.76q-2.13-2.21-7.17-1.93a27.77,27.77,0,0,0-7.63,1.71l0,.33a7.45,7.45,0,0,1,2.48.36v.17h-.33c-.31.9-.56,1.35-.75,1.36l-.33,0-.17-.16v-.16l.16-.18,0-.32-1.87-1.22.14-.5V36.1l-1.46.4a19.43,19.43,0,0,0-4.8-.73l-1,0-.16.17c-.5,1.78-1.11,2.69-1.82,2.73h-.17a12.37,12.37,0,0,0,1.41-4.51A6.71,6.71,0,0,0,395.06,31c.88,0,1.29-.56,1.24-1.54l-.54-3.92q-.06-1.14,2.73-1.29l7.56.1.33,0a6.82,6.82,0,0,0,3.55-1.17h.17a.59.59,0,0,1-.46.68h-.17l0,.33,6.56-.18q4.59-.24,5.09-3.23v-.16q-1.54.07-2.1-2.52l0-.33h.33l.85.44.31-.34v-.16c-.63-1-2.74-1.54-6.32-1.48Zm-26,3.16a2.54,2.54,0,0,1,2.09-.93l3,.5v.16l-.81.21-4.1,0Zm17.68-1.26,2.16.55v.16l-.31.35-2.16-.38v-.17Zm-4.95,2.73.81-.21,1-.05c.33,0,.51.25.53.79l.33,0,0-.32h.17v.16a2.53,2.53,0,0,1-1.92,1.09c-.15-.87-.45-1.29-.89-1.27Zm-11.47,3.73,1,.11h.16l.16-.17.24,1.47c-1-.22-1.5-.47-1.52-.74Zm3.14,16.1c.63,0,1.8-.7,3.51-2l.85.45c0,.22-.42.41-1.29.56a1.13,1.13,0,0,0,.72,1.11l1.31-.07,0,.33c-.05.22-.31.46-.79.7l-1.8-.07H395l-.15.17.37.8v.17l-1.66-.25v.17l-.16.17.05.82-1.17-.43,0-2.47v-.16Zm14.06-1.39.48-.19,2.19,1h.17c0,.74-.49,1.26-1.56,1.56h-.17v-.16L408,40c-.16-.43-.6-.63-1.34-.59Zm-11.77,1.1a2.58,2.58,0,0,0-2.08,1.1l0,.33,1.31-.07c.55,0,.86-.21,1-.55l0-.65Zm1,6.36q-1.11,1.55-4.51,1.72l-1.64.08a5.6,5.6,0,0,1-2.15-.21v.16l-.15.17,0,.82.86.78a13.2,13.2,0,0,0-.59,4.46l.12,2.13a26.25,26.25,0,0,0,.92,5c.09,1.86,2.82,2.64,8.17,2.36l2.95-.15a28.11,28.11,0,0,0,6.68-1.17,57.78,57.78,0,0,0,9.39.49l2.29-.12c4.15-.22,6.15-1.85,6-4.91l-.21-.81q-1.74-2.7-8.33-2.36l-4.92.26-.46.68v.16l-2.64-.19-.65,0c-.85,0-1.33.29-1.44.73a18.35,18.35,0,0,0-6.6-.48,2.48,2.48,0,0,1-2.56-1.83c.63-.5.89-1.94.76-4.31L397.06,47l-.35-.31Zm-5.13,8.65c-.1-1.86.73-2.83,2.47-2.92q-.51,2.82-2.31,2.91Zm5.78,3.8L397,59l1.32.26c-.89,1.69-1.51,2.54-1.83,2.56l-.18-.15.62-.86-.06-1-.35-.47Zm18.32,1.51.81-.21.65,0,.06,1.16.36.48v.16l-.49,0a4.62,4.62,0,0,1-1.4-1.58Zm14.38,4.83a14.42,14.42,0,0,0-5,1.9h-.17q0-.33,1-.54l0-.66-12.14.31a75,75,0,0,0-9,1.13V68l.5,0v.33l-.48.19a2.28,2.28,0,0,0-1.33-.26v-.16l.3-.51v-.33l-.18-.15-1.46.24-2.14,0q-2.79.14-3.87,1.35h-.17l-1.37-1.08-.33,0c.06,1-1,1.53-3,1.64H390c-.16,0-.4-.36-.71-1.11h.16l-.34-.31-7.38.39-.31.34.24,4.59c0,.16.41.36,1.18.6a19,19,0,0,1,4.38-1.22l.49,0a4.76,4.76,0,0,1,3.84,1.27,22.24,22.24,0,0,0-4.46-.42l-.81,0a11,11,0,0,0-4.37,1.38l0,.33,8.05.07,20.8-1.26H411a3.21,3.21,0,0,1,2.54-1.6h.16l0,.33c-1.18.33-1.77.64-1.75.91v.16l.18.16h.16l.16-.17,1.31-.07,2.64.19.32,0a1.08,1.08,0,0,0,1.11-.88l-.37-.64V72c.48-.11,1.1-1,1.83-2.56.73.24,1.12.49,1.19.76v.16l-1,.22V71l.83.12,5.24-.28,1.63-.25c.05.88.57,1.29,1.55,1.24l0,.49-.48.19c-.54,0-1.23-.43-2-1.37h-.17l-.15.18-.46.68L425,72l-1-.76c-.21,0-.31.29-.28.83l-1.31.07-.63.53q0,.85,9.88.46l.3-.51,0-.49L431.18,68l.26-1.33a2.53,2.53,0,0,0-2.2-1.2ZM393,69.2l1.46-.4h.16l.17.15-.78.7.57,1.45v.16c-1.24-.67-1.88-1.35-1.91-2Zm16.5,1.27c0-.27.3-.45,1-.54.11-.66.25-1,.44-1l.33,0c1.1,0,1.66.33,1.69.9V70l-1.64.08-1.77.59Zm-13,2.5c0-.38.57-.68,1.76-.91l.32,0,.52.47,0,.32Zm3.13.17a.88.88,0,0,1,.95-.71l1.31-.07v.16q-.1.49-1,.54ZM416,72.77l.48-.19.33,0-.47.52ZM439.22,4.52,417.43,5.66l-.15.18.37,3.92v3.12l.17.16.15-.18,7.71-.24,2.62-.3,0-.33q-1-.27-1-.6l0-.49c1.65.26,2.72.76,3.19,1.47l1.14-.22,20-1.05,20-.88v-.16l.16-.17L471.35,3l-1.3.39-4.61-.25-.82,0a3.34,3.34,0,0,0-1.61.58l.56,1.29v.32c-.62,0-1.31-.58-2.06-1.86L449.87,4a6.31,6.31,0,0,0-3.23,1,2.42,2.42,0,0,0-2-.72l-1.14.06Q439.91,5,440,5.8h-.16q-.24-1.3-.57-1.29ZM427.33,6.46l1.49.25v.16l-.6,1-.33,0c-.24,0-.43-.31-.54-1ZM419.9,8.82l1.46-.4.06,1.15-1.15.06-.34-.31Zm36.29-.42L457.91,7l.37.8a2.25,2.25,0,0,1-1.75.91Zm4.13.61,2.1-.77.06,1.15-.66,0L460,9.19c-.33,0-.48.35-.44,1h-.33l-.17-.15.27-1.17.82.12ZM437,11.54c.54-.8,1-1.21,1.42-1.23l.67.3c0,.54-.45.84-1.43.89ZM453.35,14l-5.07.43-2.13.11-1.95.27v-.16l-.49,0c.05,1-.47,1.53-1.56,1.73l-.37-.8-3.19,1.81h-.16l.14-.5c0-.27-.48-.68-1.38-1.24l.3-.51V15l-.15.17-6.4.17a16,16,0,0,0-4.39.89c-.85.62-1.23,1.74-1.14,3.35l0,.65c.06.55.18.81.37.8q.1,2,5.86,2l2.13-.11c3.77-.2,6,0,6.76.46l.71,16.72a44.83,44.83,0,0,0,1.19,7,10.07,10.07,0,0,0-.64,3.48,4.24,4.24,0,0,0,1.65,3.2l-.66,0c-.65,0-1,.49-.91,1.37l.05,1c.16,3.14,1.91,5.07,5.23,5.8l.66,0a4.61,4.61,0,0,0,3-2l-.35-.31-.82,0-2.09.93h-.16l.61-.85q0-.37-.84-.45v-.17l.49,0,3.62.14c.55,0,.78-.86.69-2.5a3.73,3.73,0,0,0-.75-1.77c.33,0,.49-.13.48-.35l-.11-2-.17-.15-1.46.4a1,1,0,0,1-1-.6v-.16h.16l.17.15h.17l2.09-.76L450,22.37l.17.15,3.41-.67c1-.05,1.57-.85,1.68-2.39a11.16,11.16,0,0,0,4,1.11v.16c-.85,0-1.33.29-1.44.73v.16l.34.32,1.15-.06c2.18-.17,3.26-.5,3.24-1v-.17l-1,.05-1.14.22v-.16l-.33,0v-.33l.81-.21,2.49.53a4.94,4.94,0,0,0,1.78-3.54l0-.5Q465,13.36,453.36,14Zm-6.05,3.6q-.09-1.63,3.3-2.8c-.84,2.68-1.81,4-2.9,4.1l-.49,0v-.16l.48-.19Zm-4.91.43c0-.19.26-.37.8-.54l1.82.4c0,.55-.45.84-1.43.9h-.33l.12-.82Zm16.31.78a2.79,2.79,0,0,1,1.91-1.24l.5.13c-.75.92-1.33,1.39-1.73,1.41Zm-23.33,3c.42-1.22,1.1-1.86,2-1.91.5.19.79.4.85.61l0,.33-1,.05a3.31,3.31,0,0,1-1.76.92Zm8.75.86c.77,0,1.17.26,1.2.92l-.28.83.17.16c1.87.18,2.82.51,2.84,1l-.31.35a4.52,4.52,0,0,0-3.33-1l.3-.51-.58-1.61Zm-.1,4.27h.16L447,28.09c-.05.22-.31.45-.79.7l-1.81-.24.12-.82,0-.33q0-.33-.51-.3Zm.36,3.76,2.34.7v.17l-1.62.41h-.17v-.17h.33l0-.33c0-.33-.35-.48-1-.44v-.16Zm.78,2.43.49,0,2.86,1.17,0,.65-.15.17-1.33-.26-.31.35a2.29,2.29,0,0,1-1.58-1.89Zm-.71,11.37.81,0c.68.84,1.14,1.25,1.38,1.24l-.46.52a4,4,0,0,1-2-.56Zm2.8,3.3,1.64.08-.29.67L447,48.46Zm-3.46,3,.46-.52L447,50.1l0,.49c-1.32.07-2,.38-1.93.93a1.53,1.53,0,0,0-1.36-.74Zm-5.65,14.58L421,66.42c-.33,0-.49.13-.47.35l.06,1.31a4.82,4.82,0,0,0,1.14,2.9q-1,.06-1,.54l.1,1.8.34.31,1.48-.07q9-.48,14.56-1.1l4.44.1c.19-1.11.38-1.66.57-1.67l.33,0V71l-.3.51,0,.66.34.31,2-.11c1.09-.05,1.62-.46,1.58-1.23a4.86,4.86,0,0,0,2.35.86,1.28,1.28,0,0,0,1.26-1l.51.47L450,72v.18l24.58-1.29.31-.35-.05-1a1.47,1.47,0,0,0-1.06-1.42l.77-.86-.25-1.63.08-1.65q-9.36,0-17.88.44a55.34,55.34,0,0,0-11.26,1.41,46.86,46.86,0,0,0-7.1-.45Zm4.31.6c1.78.56,2.68,1,2.7,1.34v.16H445L443.66,67l-.47.51c-.3,0-.54-.46-.72-1.27ZM437,68.38c0-.41.5-.82,1.57-1.23h.17a3.7,3.7,0,0,1-1.07,1.54h-.17Zm-9.48,1h.16l.23,1.14v.33l-.49,0c-.46-.52-.86-.77-1.19-.75v-.17h.17l.66.13c.33,0,.48-.24.46-.68ZM437.94,71l.47-.52.33,0c1.19-.06,1.8.07,1.82.4V71c0,.19-.26.37-.8.54C438.57,71.4,438,71.21,437.94,71ZM461.75,3.35l-.15.17.26,2,.2,3.76c0,.8.23,1.22.56,1.29l3.77-.2A4,4,0,0,0,469,9.38c.11.54.29.8.53.79l16.22-.85a3.83,3.83,0,0,1,3-1.47v.32c-1.3.21-1.94.46-1.93.76l.35.31L491.29,9,493,6.48h.16l.2.64c0,.22-.35.68-1.08,1.37v.17l13.63-.22A108.81,108.81,0,0,0,519.6,7.05l-.77-5.38.1-1.16V.35L466.34,3.27Zm17.09.09,1-.06q.29,0,.54,1c-.26.78-.51,1.18-.76,1.19l-.33,0-.17-.16.12-.83,0-.65Zm17.46.72,1.13-.38v.16c1.56.44,2.35.89,2.38,1.36-2.32-.29-3.48-.62-3.5-1ZM487,11.88l-.48.35c.1,1.75-.46,2.66-1.66,2.72h-.16l0-.33c.84-.73,1.25-1.35,1.22-1.87V12.6l-.17-.16A14.7,14.7,0,0,0,476.88,16q-8.13,7.86-7.47,20.43l.09,1.64a25.81,25.81,0,0,0,5.55,15c3.18,2.79,5.5,4.15,6.94,4.07h.17l-.14.5,0,.33q1.23,1.62,12.75,2c3.74-.19,6-1.14,6.92-2.82V57l-.82,0-.35-.32v-.16l.3-.51v-.33l-.18-.15.65-.2a20.5,20.5,0,0,1,5.12.55,5.12,5.12,0,0,0,2.38-1.6q6.84-7.38,6.16-20.37A28.89,28.89,0,0,0,512.78,24c-1.11-.3-1.67-.59-1.69-.9l.62-.68,0-.5q-6-11-22.06-10.18Zm2.22,1.69,1.31-.07c.55,0,.89.12,1,.44l0,.32a1.08,1.08,0,0,1-1.11.72l-1.15.06ZM477.42,20.1A2,2,0,0,1,479,18.87l.49,0c0,.77-.6,1.18-1.91,1.25Zm1.51,16.35a24.27,24.27,0,0,1,.91-7.77q2.61-9,11.33-9.47h.17q8.06-.43,11.88,7.42l1-.38h.33l-.23,2,1.13,9,.05,1-.17,3.13a.59.59,0,0,0,.53.63H506v.16c-1.81.95-2.67,2.25-2.58,3.92l0,.49.17.15Q500,49,500.05,50.78l-.67-.29c-1.85.29-2.74,1-2.68,2.11q-6.51.34-14.67-4l.27-1.17v-.16l-1.46-2.72-5.15,1.92h-.17a5.77,5.77,0,0,1,3.67-2.17l1.14-.06.16-.17A29,29,0,0,1,478.93,36.45Zm26-12.21c0-.35.51-.6,1.6-.74l2.31.21v.16l-2.25.94Zm-34.49,9.7c.14-.45.29-.67.46-.68H471q1.33,1.08,1.86,1v.16l-.16.18Zm5.15,1h.16l1.37,1.08-.31.35-1.79.09-.18-.15.14-.5c.42-.33.62-.61.61-.86Zm28.61,19.2c0-.27.3-.45.95-.54l.82,0,.35.31,0,.49-.33,0-1.32-.26h-.33l-.16.18ZM476.4,63.36q-11.62.73-11.6,1.26l.42,4.91L465.13,71l.67.3,19-1.16,1.15-.06a3.18,3.18,0,0,1,1.9-1.41c.55.1.83.25.84.44s-.19.51-.63.53l0,.33,6.72-.36,26.71-1.23c.76-.15,1.13-.33,1.12-.55l0-.82-.35-3.6.06-2-.19-.48-.16.17-13.77.56a10.72,10.72,0,0,0-5.83,1.62l-.65,0-1.22-1.25-2.77.31Zm9.71,3.43c0-.27.52-.52,1.6-.74l0,.33a1.38,1.38,0,0,1-1.27.89l-.33,0Z" transform="translate(-0.19 -0.35)"></path></svg>